<svg xmlns="http://www.w3.org/2000/svg" viewBox="0 0 24 24" aria-hidden="true">
  <path fill="#111" d="M12 .3a11.7 11.7 0 0 0-3.7 22.8c.6.1.8-.2.8-.6v-2.1c-3.3.7-4-1.4-4-1.4-.6-1.3-1.3-1.7-1.3-1.7-1.1-.7.1-.7.1-.7 1.2.1 1.8 1.2 1.8 1.2 1 1.8 2.8 1.3 3.5 1 .1-.8.4-1.3.8-1.6-2.6-.3-5.3-1.3-5.3-5.7 0-1.3.5-2.3 1.2-3.1-.1-.3-.5-1.5.1-3.1 0 0 1-.3 3.2 1.2 1-.3 1.9-.4 3-.4 1 0 2 .1 3 .4 2.2-1.5 3.2-1.2 3.2-1.2.6 1.6.2 2.8.1 3.1.8.8 1.2 1.8 1.2 3.1 0 4.4-2.7 5.4-5.3 5.7.4.4.8 1 .8 2.1v3.2c0 .4.2.7.8.6A11.7 11.7 0 0 0 12 .3Z"/>
</svg>
