<svg xmlns="http://www.w3.org/2000/svg" viewBox="0 0 24 24" aria-hidden="true">
  <path fill="#EA4335" d="M12 10.2v3.9h5.4c-.2 1.3-1.6 3.8-5.4 3.8-3.2 0-5.9-2.7-5.9-5.9s2.7-5.9 5.9-5.9c1.8 0 3 .8 3.7 1.5l2.5-2.4C16.6 3.7 14.5 3 12 3 7 3 3 7 3 12s4 9 9 9c5.2 0 8.6-3.6 8.6-8.7 0-.6-.1-1.1-.1-1.5z"/>
  <path fill="#34A853" d="M3 7.3l3.2 2.3C7 8 8.4 6.9 10 6.3V3.2C7.2 4 4.9 6.2 3.9 9z"/>
  <path fill="#4285F4" d="M12 21c2.4 0 4.5-.8 6-2.2l-2.8-2.2c-.8.6-1.9 1-3.2 1-2.8 0-5.2-1.9-6-4.4L3 15.6C4.3 18.8 7.9 21 12 21z"/>
  <path fill="#FBBC05" d="M6 12c0-.7.1-1.3.3-1.9L3 7.8C2.4 9.1 2 10.5 2 12s.4 2.9 1 4.2l3.3-2.4C6.1 13.3 6 12.7 6 12z"/>
</svg>
